<svg width="141" height="32" viewBox="0 0 141 32" fill="none" xmlns="http://www.w3.org/2000/svg">
<g id="logo-white">
<g id="logo">
<path d="M69.6824 29.1072C68.2658 29.1072 66.9517 28.8768 65.74 28.416C64.5453 27.9552 63.5042 27.3067 62.6168 26.4704C61.7464 25.6341 61.0637 24.6528 60.5688 23.5264C60.0909 22.4 59.852 21.1712 59.852 19.84C59.852 18.5088 60.0909 17.28 60.5688 16.1536C61.0637 15.0272 61.7549 14.0459 62.6424 13.2096C63.5298 12.3733 64.5709 11.7248 65.7656 11.264C66.9602 10.8032 68.2573 10.5728 69.6568 10.5728C71.0733 10.5728 72.3704 10.8032 73.548 11.264C74.7426 11.7248 75.7752 12.3733 76.6456 13.2096C77.533 14.0459 78.2242 15.0272 78.7192 16.1536C79.2141 17.2629 79.4616 18.4917 79.4616 19.84C79.4616 21.1712 79.2141 22.4085 78.7192 23.552C78.2242 24.6784 77.533 25.6597 76.6456 26.496C75.7752 27.3152 74.7426 27.9552 73.548 28.416C72.3704 28.8768 71.0818 29.1072 69.6824 29.1072ZM69.6568 25.5744C70.4589 25.5744 71.1928 25.4379 71.8584 25.1648C72.541 24.8917 73.1384 24.4992 73.6504 23.9872C74.1624 23.4752 74.5549 22.8693 74.828 22.1696C75.1181 21.4699 75.2632 20.6933 75.2632 19.84C75.2632 18.9867 75.1181 18.2101 74.828 17.5104C74.5549 16.8107 74.1624 16.2048 73.6504 15.6928C73.1554 15.1808 72.5666 14.7883 71.884 14.5152C71.2013 14.2421 70.4589 14.1056 69.6568 14.1056C68.8546 14.1056 68.1122 14.2421 67.4296 14.5152C66.764 14.7883 66.1752 15.1808 65.6632 15.6928C65.1512 16.2048 64.7501 16.8107 64.46 17.5104C64.1869 18.2101 64.0504 18.9867 64.0504 19.84C64.0504 20.6763 64.1869 21.4528 64.46 22.1696C64.7501 22.8693 65.1426 23.4752 65.6376 23.9872C66.1496 24.4992 66.7469 24.8917 67.4296 25.1648C68.1122 25.4379 68.8546 25.5744 69.6568 25.5744Z" fill="white"/>
<path d="M91.2824 29.1072C89.8658 29.1072 88.5517 28.8768 87.34 28.416C86.1453 27.9552 85.1042 27.3067 84.2168 26.4704C83.3464 25.6341 82.6637 24.6528 82.1688 23.5264C81.6909 22.4 81.452 21.1712 81.452 19.84C81.452 18.5088 81.6909 17.28 82.1688 16.1536C82.6637 15.0272 83.3549 14.0459 84.2424 13.2096C85.1298 12.3733 86.1709 11.7248 87.3656 11.264C88.5602 10.8032 89.8573 10.5728 91.2568 10.5728C92.6733 10.5728 93.9704 10.8032 95.148 11.264C96.3426 11.7248 97.3752 12.3733 98.2456 13.2096C99.133 14.0459 99.8242 15.0272 100.319 16.1536C100.814 17.2629 101.062 18.4917 101.062 19.84C101.062 21.1712 100.814 22.4085 100.319 23.552C99.8242 24.6784 99.133 25.6597 98.2456 26.496C97.3752 27.3152 96.3426 27.9552 95.148 28.416C93.9704 28.8768 92.6818 29.1072 91.2824 29.1072ZM91.2568 25.5744C92.0589 25.5744 92.7928 25.4379 93.4584 25.1648C94.141 24.8917 94.7384 24.4992 95.2504 23.9872C95.7624 23.4752 96.1549 22.8693 96.428 22.1696C96.7181 21.4699 96.8632 20.6933 96.8632 19.84C96.8632 18.9867 96.7181 18.2101 96.428 17.5104C96.1549 16.8107 95.7624 16.2048 95.2504 15.6928C94.7554 15.1808 94.1666 14.7883 93.484 14.5152C92.8013 14.2421 92.0589 14.1056 91.2568 14.1056C90.4546 14.1056 89.7122 14.2421 89.0296 14.5152C88.364 14.7883 87.7752 15.1808 87.2632 15.6928C86.7512 16.2048 86.3501 16.8107 86.06 17.5104C85.7869 18.2101 85.6504 18.9867 85.6504 19.84C85.6504 20.6763 85.7869 21.4528 86.06 22.1696C86.3501 22.8693 86.7426 23.4752 87.2376 23.9872C87.7496 24.4992 88.3469 24.8917 89.0296 25.1648C89.7122 25.4379 90.4546 25.5744 91.2568 25.5744Z" fill="white"/>
<path d="M108.979 28.8L101.248 10.88H105.728L112.487 26.752H109.85L116.711 10.88H120.832L113.075 28.8H108.979Z" fill="white"/>
<path d="M130.832 29.1072C129.416 29.1072 128.102 28.8768 126.89 28.416C125.695 27.9552 124.654 27.3067 123.767 26.4704C122.896 25.6341 122.214 24.6528 121.719 23.5264C121.241 22.4 121.002 21.1712 121.002 19.84C121.002 18.5088 121.241 17.28 121.719 16.1536C122.214 15.0272 122.905 14.0459 123.792 13.2096C124.68 12.3733 125.721 11.7248 126.916 11.264C128.11 10.8032 129.407 10.5728 130.807 10.5728C132.223 10.5728 133.52 10.8032 134.698 11.264C135.893 11.7248 136.925 12.3733 137.796 13.2096C138.683 14.0459 139.374 15.0272 139.869 16.1536C140.364 17.2629 140.612 18.4917 140.612 19.84C140.612 21.1712 140.364 22.4085 139.869 23.552C139.374 24.6784 138.683 25.6597 137.796 26.496C136.925 27.3152 135.893 27.9552 134.698 28.416C133.52 28.8768 132.232 29.1072 130.832 29.1072ZM130.807 25.5744C131.609 25.5744 132.343 25.4379 133.008 25.1648C133.691 24.8917 134.288 24.4992 134.8 23.9872C135.312 23.4752 135.705 22.8693 135.978 22.1696C136.268 21.4699 136.413 20.6933 136.413 19.84C136.413 18.9867 136.268 18.2101 135.978 17.5104C135.705 16.8107 135.312 16.2048 134.8 15.6928C134.305 15.1808 133.717 14.7883 133.034 14.5152C132.351 14.2421 131.609 14.1056 130.807 14.1056C130.005 14.1056 129.262 14.2421 128.58 14.5152C127.914 14.7883 127.325 15.1808 126.813 15.6928C126.301 16.2048 125.9 16.8107 125.61 17.5104C125.337 18.2101 125.2 18.9867 125.2 19.84C125.2 20.6763 125.337 21.4528 125.61 22.1696C125.9 22.8693 126.293 23.4752 126.788 23.9872C127.3 24.4992 127.897 24.8917 128.58 25.1648C129.262 25.4379 130.005 25.5744 130.807 25.5744Z" fill="white"/>
<path d="M29.9532 4.73595L24.8577 0.51246C23.9197 -0.265064 22.5212 -0.1442 21.7341 0.782416L0 26.3687L6.79388 32L29.9532 4.73595Z" fill="white"/>
<path d="M21.182 25.1132L30.0508 14.7098V4.85388L21.182 15.3577V25.1132Z" fill="white"/>
<path d="M45.3494 0.512514L50.4449 4.73601L29.4939 29.4004C28.7067 30.327 27.3082 30.4479 26.3702 29.6703L21.2748 25.4468L42.2258 0.78247C43.0129 -0.144146 44.4114 -0.26501 45.3494 0.512514Z" fill="white"/>
<path d="M41.691 25.1132L50.5598 14.7098V4.85388L41.691 15.3577V25.1132Z" fill="white"/>
<path d="M54.3332 14.2012L59.4286 18.4247L50.1649 29.3303C49.3778 30.2569 47.9792 30.3778 47.0412 29.6003L41.9458 25.3768L51.2095 14.4711C51.9966 13.5445 53.3951 13.4237 54.3332 14.2012Z" fill="white"/>
</g>
</g>
</svg>
